<?xml version="1.0" standalone="no"?>
<!DOCTYPE svg PUBLIC "-//W3C//DTD SVG 20010904//EN"
 "http://www.w3.org/TR/2001/REC-SVG-20010904/DTD/svg10.dtd">
<svg version="1.0" xmlns="http://www.w3.org/2000/svg"
 width="600.000000pt" height="600.000000pt" viewBox="0 0 600.000000 600.000000"
 preserveAspectRatio="xMidYMid meet">

<g transform="translate(0.000000,600.000000) scale(0.100000,-0.100000)"
fill="#000000" stroke="none">
<path d="M3175 5033 c-155 -22 -429 -128 -500 -194 -14 -12 -34 -18 -62 -16
-44 1 -73 -15 -73 -43 0 -10 -7 -24 -16 -31 -11 -9 -14 -23 -11 -46 4 -25 -3
-52 -29 -106 -70 -147 -82 -338 -30 -453 25 -55 26 -58 11 -107 -37 -126 0
-246 83 -272 18 -5 21 -10 12 -20 -17 -21 -8 -59 15 -63 11 -2 30 -8 42 -14
12 -6 30 -8 41 -6 14 4 24 -3 38 -26 10 -17 51 -66 91 -109 l74 -78 -23 -40
c-33 -58 -76 -108 -119 -135 -41 -25 -50 -53 -24 -74 21 -17 46 -5 104 50 50
48 111 154 111 193 0 34 -29 74 -99 136 -38 34 -83 83 -100 109 -17 26 -38 58
-48 72 -10 14 -16 33 -15 42 3 15 -4 18 -37 18 -84 0 -120 78 -91 202 16 67
34 88 77 88 27 0 45 -10 84 -47 33 -31 53 -43 60 -36 5 5 14 59 19 121 10 115
31 222 55 278 14 34 17 36 145 65 30 6 79 20 108 30 28 10 52 16 52 13 0 -3
-7 -18 -15 -33 -13 -26 -13 -30 0 -41 24 -20 131 -3 257 41 86 29 129 39 178
39 36 0 93 7 128 15 62 15 64 15 92 -7 34 -28 37 -51 50 -441 7 -189 6 -302
-1 -355 -24 -182 -136 -313 -304 -356 -77 -21 -152 -20 -245 3 -79 20 -103 15
-84 -17 21 -36 100 -64 193 -70 l89 -5 12 -41 c20 -66 49 -116 76 -128 28 -13
26 -26 -14 -101 -34 -64 -99 -122 -178 -159 -78 -37 -204 -48 -306 -29 -143
28 -278 122 -346 242 -18 31 -39 62 -47 69 -8 7 -15 20 -15 29 0 10 -9 27 -21
40 -19 20 -27 21 -77 16 -208 -24 -373 -106 -570 -284 -188 -170 -357 -429
-441 -677 -44 -128 -49 -179 -24 -207 l20 -22 -23 -135 c-38 -225 -47 -372
-41 -624 6 -223 34 -500 57 -560 7 -18 17 -26 34 -26 35 0 39 25 22 127 -35
201 -48 454 -44 830 2 199 7 365 11 369 3 4 33 -5 64 -19 72 -32 201 -70 337
-98 l104 -22 4 -66 c2 -36 -3 -122 -10 -191 -15 -142 -10 -701 7 -828 12 -81
31 -128 50 -124 6 1 321 5 699 8 378 3 846 9 1040 12 195 4 356 4 359 0 8 -14
54 -8 60 7 3 9 -2 60 -10 113 -31 184 -87 736 -87 854 l0 47 48 6 c26 4 67 13
91 21 25 8 45 14 45 14 1 0 2 -78 2 -173 3 -360 44 -643 121 -839 17 -43 40
-49 68 -18 18 19 17 23 -8 108 -55 182 -66 244 -92 527 -9 94 -23 206 -31 250
-8 44 -17 96 -21 116 l-5 36 63 22 c77 28 89 37 89 65 0 38 -246 769 -288 858
-50 103 -141 241 -212 321 -37 41 -72 67 -124 92 -86 41 -256 88 -302 83 -34
-4 -49 12 -73 75 -9 24 -7 27 65 61 136 64 227 182 260 334 20 98 14 465 -12
665 -5 38 -3 47 10 47 40 0 50 114 16 180 -19 37 -19 42 -5 64 9 13 18 46 22
73 5 43 2 54 -16 72 -11 11 -21 28 -21 36 0 8 -9 24 -20 35 -11 11 -20 27 -20
35 0 18 -39 35 -77 35 -14 0 -99 25 -188 55 -153 52 -169 55 -251 54 -49 -1
-102 -4 -119 -6z"/>
<path d="M3574 4345 c-9 -24 13 -43 59 -50 22 -4 61 -16 85 -26 52 -22 62 -23
62 -6 0 55 -188 129 -206 82z"/>
<path d="M3191 4333 c-41 -15 -140 -97 -129 -108 3 -3 30 8 61 24 32 17 81 32
114 36 70 9 87 19 72 46 -12 23 -56 24 -118 2z"/>
<path d="M3187 4193 c-2 -4 -7 -24 -11 -44 -8 -48 7 -89 34 -89 26 0 42 40 38
94 -3 36 -6 41 -30 44 -14 2 -28 0 -31 -5z"/>
<path d="M3645 4180 c-20 -22 -15 -80 10 -100 22 -18 53 5 60 44 13 64 -31 99
-70 56z"/>
<path d="M2550 4012 c0 -5 3 -12 7 -16 4 -4 7 -19 8 -34 0 -23 4 -27 27 -27
15 0 33 -6 39 -12 28 -28 82 -3 63 29 -22 36 -144 86 -144 60z"/>
<path d="M3520 4014 c0 -4 13 -21 29 -40 32 -36 32 -67 -1 -85 -15 -8 -29 -5
-64 15 -48 27 -74 25 -74 -5 0 -24 68 -59 115 -59 45 0 95 45 95 85 0 33 -24
81 -45 89 -21 8 -55 8 -55 0z"/>
<path d="M3361 3716 c-25 -30 34 -88 102 -101 48 -9 121 25 143 66 26 50 -5
67 -45 25 -13 -13 -34 -27 -47 -30 -28 -7 -90 18 -98 40 -7 18 -40 18 -55 0z"/>
</g>
</svg>
